<?xml version="1.0" encoding="utf-8"?>
<!-- Generator: Adobe Illustrator 13.0.0, SVG Export Plug-In . SVG Version: 6.00 Build 14948)  -->
<!DOCTYPE svg PUBLIC "-//W3C//DTD SVG 1.1//EN" "http://www.w3.org/Graphics/SVG/1.1/DTD/svg11.dtd">
<svg version="1.1" id="Layer_1" focusable="false" xmlns="http://www.w3.org/2000/svg" xmlns:xlink="http://www.w3.org/1999/xlink"
	 x="0px" y="0px" width="22.667px" height="21.333px" viewBox="-1104.117 1638.755 22.667 21.333"
	 enable-background="new -1104.117 1638.755 22.667 21.333" xml:space="preserve">
<path fill="#F9B408" d="M-1086.845,1652.923h-8.205l0.183,0.896h7.512c0.431,0,0.75,0.4,0.655,0.821l-0.155,0.68
	c0.523,0.253,0.883,0.79,0.883,1.41c0,0.874-0.714,1.58-1.59,1.567c-0.834-0.012-1.521-0.689-1.543-1.523
	c-0.013-0.456,0.17-0.869,0.47-1.163h-5.868c0.291,0.284,0.471,0.681,0.471,1.119c0,0.891-0.742,1.608-1.642,1.566
	c-0.799-0.037-1.448-0.683-1.49-1.481c-0.032-0.617,0.292-1.16,0.785-1.443l-1.965-9.612h-1.956c-0.371,0-0.672-0.301-0.672-0.672
	v-0.448c0-0.371,0.301-0.671,0.672-0.671h2.869c0.319,0,0.594,0.224,0.658,0.537l0.257,1.254h10.993c0.431,0,0.75,0.4,0.655,0.82
	l-1.323,5.822C-1086.26,1652.707-1086.532,1652.923-1086.845,1652.923z M-1089.552,1648.669h-1.344v-1.119
	c0-0.248-0.2-0.448-0.448-0.448h-0.447c-0.248,0-0.448,0.201-0.448,0.448v1.119h-1.343c-0.248,0-0.449,0.201-0.449,0.448v0.448
	c0,0.248,0.201,0.448,0.449,0.448h1.343v1.12c0,0.248,0.2,0.447,0.448,0.447h0.447c0.248,0,0.448-0.2,0.448-0.447v-1.12h1.344
	c0.247,0,0.448-0.2,0.448-0.448v-0.448C-1089.104,1648.87-1089.305,1648.669-1089.552,1648.669z"/>
</svg>
